%TF.GenerationSoftware,KiCad,Pcbnew,10.0.4*%
%TF.CreationDate,2026-07-22T02:20:28-06:00*%
%TF.ProjectId,SAO-adapter,53414f2d-6164-4617-9074-65722e6b6963,1.0*%
%TF.SameCoordinates,Original*%
%TF.FileFunction,Copper,L1,Top*%
%TF.FilePolarity,Positive*%
%FSLAX46Y46*%
G04 Gerber Fmt 4.6, Leading zero omitted, Abs format (unit mm)*
G04 Created by KiCad (PCBNEW 10.0.4) date 2026-07-22 02:20:28*
%MOMM*%
%LPD*%
G01*
G04 APERTURE LIST*
G04 Aperture macros list*
%AMHorizOval*
0 Thick line with rounded ends*
0 $1 width*
0 $2 $3 position (X,Y) of the first rounded end (center of the circle)*
0 $4 $5 position (X,Y) of the second rounded end (center of the circle)*
0 Add line between two ends*
20,1,$1,$2,$3,$4,$5,0*
0 Add two circle primitives to create the rounded ends*
1,1,$1,$2,$3*
1,1,$1,$4,$5*%
G04 Aperture macros list end*
%TA.AperFunction,ComponentPad*%
%ADD10O,1.700000X1.700000*%
%TD*%
%TA.AperFunction,ComponentPad*%
%ADD11C,1.700000*%
%TD*%
%TA.AperFunction,ComponentPad*%
%ADD12R,1.700000X1.700000*%
%TD*%
%TA.AperFunction,ComponentPad*%
%ADD13HorizOval,2.250000X0.025506X0.374132X-0.025506X-0.374132X0*%
%TD*%
%TA.AperFunction,ComponentPad*%
%ADD14C,2.000000*%
%TD*%
%TA.AperFunction,ComponentPad*%
%ADD15HorizOval,2.250000X0.654995X0.730004X-0.654995X-0.730004X0*%
%TD*%
%TA.AperFunction,ComponentPad*%
%ADD16C,2.250000*%
%TD*%
%TA.AperFunction,ViaPad*%
%ADD17C,0.600000*%
%TD*%
%TA.AperFunction,Conductor*%
%ADD18C,0.203200*%
%TD*%
%TA.AperFunction,Conductor*%
%ADD19C,0.381000*%
%TD*%
G04 APERTURE END LIST*
D10*
%TO.P,X3,1,VCC_1*%
%TO.N,VCC*%
X151635000Y-121361420D03*
%TO.P,X3,2,GND_2*%
%TO.N,GND*%
X151635000Y-123901420D03*
D11*
%TO.P,X3,3,SDA_3*%
%TO.N,SDA*%
X154175000Y-121361420D03*
D10*
%TO.P,X3,4,SCL_4*%
%TO.N,SCL*%
X154175000Y-123901420D03*
D11*
%TO.P,X3,5,GPIO1_5*%
%TO.N,SAO2_1*%
X156715000Y-121361420D03*
D10*
%TO.P,X3,6,GPIO2_6*%
%TO.N,SAO2_2*%
X156715000Y-123901420D03*
%TD*%
D12*
%TO.P,J1,1,Pin_1_1*%
%TO.N,GND*%
X127200000Y-90700000D03*
D11*
%TO.P,J1,2,Pin_2_2*%
%TO.N,VCC*%
X129740000Y-90700000D03*
%TO.P,J1,3,Pin_3_3*%
%TO.N,SCL*%
X132280000Y-90700000D03*
%TO.P,J1,4,Pin_4_4*%
%TO.N,SDA*%
X134820000Y-90700000D03*
%TD*%
D10*
%TO.P,X2,1,VCC_1*%
%TO.N,VCC*%
X105579330Y-90605000D03*
%TO.P,X2,2,GND_2*%
%TO.N,GND*%
X105579330Y-93145000D03*
D11*
%TO.P,X2,3,SDA_3*%
%TO.N,SDA*%
X108119330Y-90605000D03*
D10*
%TO.P,X2,4,SCL_4*%
%TO.N,SCL*%
X108119330Y-93145000D03*
D11*
%TO.P,X2,5,GPIO1_5*%
%TO.N,SAO1_1*%
X110659330Y-90605000D03*
D10*
%TO.P,X2,6,GPIO2_6*%
%TO.N,SAO1_2*%
X110659330Y-93145000D03*
%TD*%
D13*
%TO.P,SW5,1,1_1*%
%TO.N,SAO2_1*%
X133600000Y-105660000D03*
D14*
X136090000Y-106610000D03*
D15*
%TO.P,SW5,2,2_2*%
%TO.N,Net-(D5-A)*%
X127934995Y-107139996D03*
D16*
X128590000Y-106410000D03*
D14*
X131090000Y-104510000D03*
%TD*%
D10*
%TO.P,X4,1,VCC_1*%
%TO.N,VCC*%
X151635000Y-90605000D03*
%TO.P,X4,2,GND_2*%
%TO.N,GND*%
X151635000Y-93145000D03*
D11*
%TO.P,X4,3,SDA_3*%
%TO.N,SDA*%
X154175000Y-90605000D03*
D10*
%TO.P,X4,4,SCL_4*%
%TO.N,SCL*%
X154175000Y-93145000D03*
D11*
%TO.P,X4,5,GPIO1_5*%
%TO.N,SAO2_1*%
X156715000Y-90605000D03*
D10*
%TO.P,X4,6,GPIO2_6*%
%TO.N,SAO2_2*%
X156715000Y-93145000D03*
%TD*%
D13*
%TO.P,SW4,1,1_1*%
%TO.N,SAO1_2*%
X114410000Y-105660000D03*
D14*
X116900000Y-106610000D03*
D15*
%TO.P,SW4,2,2_2*%
%TO.N,Net-(D4-A)*%
X108744995Y-107139996D03*
D16*
X109400000Y-106410000D03*
D14*
X111900000Y-104510000D03*
%TD*%
D10*
%TO.P,X1,1,VCC_1*%
%TO.N,VCC*%
X105579330Y-121361420D03*
%TO.P,X1,2,GND_2*%
%TO.N,GND*%
X105579330Y-123901420D03*
D11*
%TO.P,X1,3,SDA_3*%
%TO.N,SDA*%
X108119330Y-121361420D03*
D10*
%TO.P,X1,4,SCL_4*%
%TO.N,SCL*%
X108119330Y-123901420D03*
D11*
%TO.P,X1,5,GPIO1_5*%
%TO.N,SAO1_1*%
X110659330Y-121361420D03*
D10*
%TO.P,X1,6,GPIO2_6*%
%TO.N,SAO1_2*%
X110659330Y-123901420D03*
%TD*%
D13*
%TO.P,SW6,1,1_1*%
%TO.N,SAO2_2*%
X152790000Y-105660000D03*
D14*
X155280000Y-106610000D03*
D15*
%TO.P,SW6,2,2_2*%
%TO.N,Net-(D6-A)*%
X147124995Y-107139996D03*
D16*
X147780000Y-106410000D03*
D14*
X150280000Y-104510000D03*
%TD*%
D17*
%TO.N,SAO1_1*%
X113390000Y-121340000D03*
%TO.N,SAO2_1*%
X151220000Y-96360000D03*
%TO.N,SAO2_2*%
X153364700Y-96434700D03*
%TO.N,SCL*%
X132310000Y-92850000D03*
%TD*%
%TO.N,SAO1_1*%
D18*
X113368580Y-121361420D02*
X113390000Y-121340000D01*
X110659330Y-121361420D02*
X113368580Y-121361420D01*
%TO.N,SAO2_1*%
X155563400Y-91756600D02*
X156715000Y-90605000D01*
X151220000Y-96360000D02*
X152588609Y-96360000D01*
X155563400Y-93385209D02*
X155563400Y-91756600D01*
X152588609Y-96360000D02*
X155563400Y-93385209D01*
%TO.N,SAO2_2*%
X153364700Y-96434700D02*
X153590000Y-96209400D01*
X153650600Y-96209400D02*
X156715000Y-93145000D01*
X153590000Y-96209400D02*
X153650600Y-96209400D01*
%TO.N,SCL*%
X108119330Y-93145000D02*
X109270930Y-94296600D01*
X109270930Y-94296600D02*
X130863400Y-94296600D01*
X130863400Y-94296600D02*
X132310000Y-92850000D01*
%TO.N,VCC*%
D19*
X104338830Y-91845500D02*
X104338830Y-118985000D01*
X129090000Y-88040000D02*
X149070000Y-88040000D01*
X108144330Y-88040000D02*
X129090000Y-88040000D01*
X105579330Y-90605000D02*
X108144330Y-88040000D01*
X104338830Y-118985000D02*
X149521280Y-118985000D01*
X105579330Y-90605000D02*
X104338830Y-91845500D01*
X149521280Y-118985000D02*
X151635000Y-121098720D01*
X105579330Y-121361420D02*
X104338830Y-120120920D01*
X149070000Y-88040000D02*
X151635000Y-90605000D01*
X104338830Y-120120920D02*
X104338830Y-118985000D01*
X129740000Y-88690000D02*
X129090000Y-88040000D01*
X129740000Y-90700000D02*
X129740000Y-88690000D01*
%TO.N,SDA*%
D18*
X109507730Y-91993400D02*
X133526600Y-91993400D01*
X108119330Y-90605000D02*
X109507730Y-91993400D01*
X133526600Y-91993400D02*
X134820000Y-90700000D01*
%TD*%
M02*
