M48
; DRILL file KiCad 10.0.4 date 2026-07-23T00:20:02
; FORMAT={-:-/ absolute / metric / decimal}
; #@! TF.CreationDate,2026-07-23T00:20:02-06:00
; #@! TF.GenerationSoftware,Kicad,Pcbnew,10.0.4
; #@! TF.FileFunction,Plated,1,2,PTH
FMAT,2
METRIC
; #@! TA.AperFunction,Plated,PTH,ViaDrill
T1C0.300
; #@! TA.AperFunction,Plated,PTH,ComponentDrill
T2C1.000
; #@! TA.AperFunction,Plated,PTH,ComponentDrill
T3C1.200
; #@! TA.AperFunction,Plated,PTH,ComponentDrill
T4C1.470
%
G90
G05
T1
X113.39Y-121.34
X132.31Y-92.85
X151.22Y-96.36
X153.365Y-96.435
T2
X105.579Y-90.605
X105.579Y-93.145
X105.579Y-121.361
X105.579Y-123.901
X108.119Y-90.605
X108.119Y-93.145
X108.119Y-121.361
X108.119Y-123.901
X110.659Y-90.605
X110.659Y-93.145
X110.659Y-121.361
X110.659Y-123.901
X127.2Y-90.7
X129.74Y-90.7
X132.28Y-90.7
X134.82Y-90.7
X151.635Y-90.605
X151.635Y-93.145
X151.635Y-121.361
X151.635Y-123.901
X154.175Y-90.605
X154.175Y-93.145
X154.175Y-121.361
X154.175Y-123.901
X156.715Y-90.605
X156.715Y-93.145
X156.715Y-121.361
X156.715Y-123.901
T3
X111.9Y-104.51
X116.9Y-106.61
X131.09Y-104.51
X136.09Y-106.61
X150.28Y-104.51
X155.28Y-106.61
T4
X108.09Y-107.87
X109.4Y-106.41
X127.28Y-107.87
X128.59Y-106.41
X146.47Y-107.87
X147.78Y-106.41
T4
G00X114.382Y-106.074
M15
G01X114.438Y-105.246
M16
G05
G00X133.572Y-106.074
M15
G01X133.628Y-105.246
M16
G05
G00X152.762Y-106.074
M15
G01X152.818Y-105.246
M16
G05
M30
